<svg width="16" height="16" viewBox="0 0 16 16" fill="none" xmlns="http://www.w3.org/2000/svg">
<mask id="path-1-inside-1_1592_3" fill="white">
<path fill-rule="evenodd" clip-rule="evenodd" d="M8.00001 1.33331L10.06 5.50665L14.6667 6.17998L11.3333 9.42665L12.12 14.0133L8.00001 11.8466L3.88001 14.0133L4.66668 9.42665L1.33334 6.17998L5.94001 5.50665L8.00001 1.33331Z"/>
</mask>
<path d="M8.00001 1.33331L15.1737 -2.20768C13.8259 -4.93811 11.045 -6.66669 8.00001 -6.66669C4.95506 -6.66669 2.17412 -4.93811 0.826352 -2.20768L8.00001 1.33331ZM10.06 5.50665L2.88635 9.04764C4.05067 11.4064 6.30015 13.0421 8.90299 13.4225L10.06 5.50665ZM14.6667 6.17998L20.2485 11.9108C22.4295 9.7866 23.2157 6.60858 22.2766 3.71252C21.3376 0.816456 18.8362 -1.29559 15.8237 -1.73591L14.6667 6.17998ZM11.3333 9.42665L5.75148 3.69578C3.86449 5.53371 3.00319 8.18276 3.44847 10.779L11.3333 9.42665ZM12.12 14.0133L8.3964 21.0939C11.0917 22.5113 14.3581 22.2756 16.8219 20.4857C19.2857 18.6959 20.5197 15.6625 20.0049 12.661L12.12 14.0133ZM8.00001 11.8466L11.7236 4.76606C9.39256 3.54018 6.60746 3.54018 4.2764 4.76606L8.00001 11.8466ZM3.88001 14.0133L-4.00486 12.661C-4.51965 15.6625 -3.28569 18.6959 -0.821863 20.4857C1.64196 22.2756 4.90829 22.5113 7.60362 21.0939L3.88001 14.0133ZM4.66668 9.42665L12.5515 10.779C12.9968 8.18276 12.1355 5.53371 10.2485 3.69578L4.66668 9.42665ZM1.33334 6.17998L0.176318 -1.73591C-2.83616 -1.29559 -5.3376 0.816456 -6.27663 3.71252C-7.21565 6.60858 -6.42946 9.7866 -4.24852 11.9108L1.33334 6.17998ZM5.94001 5.50665L7.09704 13.4225C9.69987 13.0421 11.9494 11.4064 13.1137 9.04764L5.94001 5.50665ZM0.826352 4.8743L2.88635 9.04764L17.2337 1.96566L15.1737 -2.20768L0.826352 4.8743ZM8.90299 13.4225L13.5097 14.0959L15.8237 -1.73591L11.217 -2.40924L8.90299 13.4225ZM9.08481 0.449115L5.75148 3.69578L16.9152 15.1575L20.2485 11.9108L9.08481 0.449115ZM3.44847 10.779L4.23514 15.3657L20.0049 12.661L19.2182 8.0743L3.44847 10.779ZM15.8436 6.93273L11.7236 4.76606L4.2764 18.9272L8.3964 21.0939L15.8436 6.93273ZM4.2764 4.76606L0.1564 6.93273L7.60362 21.0939L11.7236 18.9272L4.2764 4.76606ZM11.7649 15.3657L12.5515 10.779L-3.21819 8.0743L-4.00486 12.661L11.7649 15.3657ZM10.2485 3.69578L6.91521 0.449115L-4.24852 11.9108L-0.915186 15.1575L10.2485 3.69578ZM2.49037 14.0959L7.09704 13.4225L4.78298 -2.40924L0.176318 -1.73591L2.49037 14.0959ZM13.1137 9.04764L15.1737 4.8743L0.826352 -2.20768L-1.23365 1.96566L13.1137 9.04764Z" fill="#FFD450" mask="url(#path-1-inside-1_1592_3)"/>
</svg>
