<svg aria-hidden="true" style="position: absolute; width: 0; height: 0; overflow: hidden;" version="1.1" xmlns="http://www.w3.org/2000/svg" xmlns:xlink="http://www.w3.org/1999/xlink">
<defs>
<symbol id="icon-Logo" viewBox="0 0 42 32">
<path fill="#fff" style="fill: var(--color1, #fff)" d="M8.608 13.446c4.754 0 8.608 3.854 8.608 8.608s-3.854 8.608-8.608 8.608c-4.754 0-8.608-3.854-8.608-8.608s3.854-8.608 8.608-8.608z"></path>
<path fill="#fff" style="fill: var(--color1, #fff)" d="M33.572 0.534c4.754 0 8.608 3.854 8.608 8.608v12.912c0 4.754-3.854 8.608-8.608 8.608s-8.608-3.854-8.608-8.608v-12.912c0-4.754 3.854-8.608 8.608-8.608z"></path>
</symbol>
<symbol id="icon-star-2" viewBox="0 0 32 32">
<path fill="#ffd450" d="m16 2.667 14.347-7.082a16 16 0 0 0-28.694 0L16 2.667zm4.12 8.346L5.773 18.095a16 16 0 0 0 12.033 8.75l2.314-15.832zm9.213 1.347 11.164 11.462a16 16 0 0 0-8.85-27.294L29.333 12.36zm-6.666 6.493L11.503 7.391a15.998 15.998 0 0 0-4.606 14.166l15.77-2.705zm1.573 9.174-7.447 14.161A16.001 16.001 0 0 0 40.01 25.323l-15.77 2.705zM16 23.693l7.447-14.161a15.998 15.998 0 0 0-14.894 0L16 23.693zm-8.24 4.334-15.77-2.705a16.001 16.001 0 0 0 23.217 16.865L7.76 28.026zm1.573-9.174 15.77 2.705a15.998 15.998 0 0 0-4.606-14.166L9.333 18.854zM2.667 12.36.353-3.472a16.001 16.001 0 0 0-8.85 27.294L2.667 12.36zm9.213-1.347 2.314 15.832a15.997 15.997 0 0 0 12.033-8.75L11.88 11.013zM1.653 9.749l4.12 8.347L34.468 3.932l-4.12-8.347L1.653 9.749zm16.153 17.096 9.213 1.347 4.628-31.664-9.213-1.347-4.628 31.663zM18.17.898l-6.667 6.493L33.83 30.314l6.667-6.493L18.17.898zM6.897 21.558l1.573 9.173 31.54-5.409-1.573-9.173-31.539 5.409zm24.79-7.693-8.24-4.333L8.553 37.854l8.24 4.333 14.894-28.322zM8.553 9.532l-8.24 4.333 14.894 28.322 8.24-4.333L8.553 9.532zM23.53 30.731l1.573-9.173-31.539-5.409-1.573 9.173 31.54 5.409zM20.497 7.392 13.83.899-8.497 23.822l6.667 6.493L20.497 7.392zm-15.516 20.8 9.213-1.347L9.566-4.818.353-3.471l4.628 31.664zm21.246-10.097 4.12-8.347L1.652-4.416l-4.12 8.347 28.695 14.164z" style="fill:var(--color1, #ffd450)"/>
</symbol>
<symbol id="icon-shape-arrow-down" viewBox="0 0 29 32">
<path d="M15.132 30.529c.447.002.894-.181 1.216-.549l11.221-12.842a1.605 1.605 0 1 0-2.418-2.112l-8.423 9.64V3.24a1.605 1.605 0 1 0-3.21 0v21.398l-8.424-9.614A1.604 1.604 0 1 0 2.68 17.14l11.116 12.686c.289.425.776.704 1.329.704h.009z"/>
</symbol>
<symbol id="icon-shape-arrow-up" viewBox="0 0 29 32">
<path d="M15.114 2.735a1.597 1.597 0 0 0-1.216.549L2.677 16.126a1.605 1.605 0 1 0 2.418 2.112l8.423-9.64v21.426a1.606 1.606 0 0 0 3.21 0V8.626l8.424 9.614a1.604 1.604 0 1 0 2.414-2.116L16.45 3.439a1.604 1.604 0 0 0-1.329-.704h-.009z"/>
</symbol>
<symbol id="icon-shape-star" viewBox="0 0 32 32">
<path d="m16 .762 16.397-8.094a18.286 18.286 0 0 0-32.794 0L16 .762zm4.709 9.539L4.312 18.395a18.288 18.288 0 0 0 13.752 10l2.645-18.093zm10.529 1.539 12.758 13.099A18.286 18.286 0 0 0 33.883-6.254l-2.645 18.093zm-7.619 7.421L10.861 6.162a18.285 18.285 0 0 0-5.264 16.19l18.023-3.091zm1.798 10.484-8.511 16.184a18.285 18.285 0 0 0 26.533-19.275l-18.023 3.091zM16 24.792l8.511-16.184a18.285 18.285 0 0 0-17.022 0L16 24.792zm-9.417 4.953-18.023-3.091a18.285 18.285 0 0 0 26.533 19.275L6.582 29.745zm1.798-10.484 18.023 3.091a18.285 18.285 0 0 0-5.264-16.19L8.381 19.261zM.762 11.84-1.883-6.253A18.286 18.286 0 0 0-11.997 24.94L.762 11.841zm10.529-1.539 2.645 18.093a18.283 18.283 0 0 0 13.752-10L11.291 10.3zM-.397 8.856l4.709 9.539L37.106 2.208l-4.709-9.539L-.397 8.856zm18.461 19.538 10.529 1.539 5.289-36.187-10.53-1.539-5.289 36.187zm.416-29.653-7.619 7.421L36.378 32.36l7.619-7.421L18.48-1.259zM5.596 22.352l1.798 10.484 36.045-6.182-1.798-10.484-36.045 6.182zm28.332-8.791-9.417-4.952L7.489 40.977l9.417 4.952 17.022-32.368zM7.489 8.608l-9.417 4.952 17.022 32.368 9.417-4.952L7.489 8.608zm17.116 24.228 1.798-10.484-36.045-6.182-1.798 10.484 36.045 6.182zM21.139 6.162 13.52-1.259l-25.517 26.198 7.619 7.421L21.139 6.162zM3.406 29.933l10.53-1.539L8.647-7.793l-10.53 1.539 5.289 36.187zm24.282-11.538 4.709-9.539L-.397-7.331l-4.709 9.539 32.794 16.187z"/>
</symbol>
<symbol id="icon-star-empty" viewBox="0 0 32 32">
<path d="M32 12.408l-11.056-1.607-4.944-10.018-4.944 10.018-11.056 1.607 8 7.798-1.889 11.011 9.889-5.199 9.889 5.199-1.889-11.011 8-7.798zM16 23.547l-6.983 3.671 1.334-7.776-5.65-5.507 7.808-1.134 3.492-7.075 3.492 7.075 7.807 1.134-5.65 5.507 1.334 7.776-6.983-3.671z"></path>
</symbol>
<symbol id="icon-star-full" viewBox="0 0 32 32">
<path d="M32 12.408l-11.056-1.607-4.944-10.018-4.944 10.018-11.056 1.607 8 7.798-1.889 11.011 9.889-5.199 9.889 5.199-1.889-11.011 8-7.798z"></path>
</symbol>
</defs>
</svg>
